# xmcd CD database file
#
# Track frame offsets:
#	150
#	9709
#	21992
#	30852
#	44875
#	55427
#	66857
#	78702
#	88190
#	112415
#	154830
#	187617
#	237365
#
# Disc length: 3506 seconds
#
# Revision: 1
# Processed by: cddbd v1.4PL0 Copyright (c) Steve Scherf et al.
# Submitted via: CDex 1.50beta10
#
DISCID=b10db00d
DTITLE=Canned Heat - Rollin´Guitar - The early Recordings
DYEAR=1995
DGENRE=Blues
TTITLE0=Big Road Blues
TTITLE1=I´ve got my Mojo working
TTITLE2=Pretty Thing
TTITLE3=Loise
TTITLE4=Dimples
TTITLE5=Talk to my Baby
TTITLE6=Straight Ahead
TTITLE7=Rollin´and Tumblin´
TTITLE8=I´d rather be a Devil
TTITLE9=It hurts me too
TTITLE10=Bulfrog Blues
TTITLE11=Sweet sixteen
TTITLE12=Dust my Broom
EXTD=YEAR: 1995
EXTT0=
EXTT1=
EXTT2=
EXTT3=
EXTT4=
EXTT5=
EXTT6=
EXTT7=
EXTT8=
EXTT9=
EXTT10=
EXTT11=
EXTT12=
PLAYORDER=
